<svg xmlns="http://www.w3.org/2000/svg" version="1.1" xmlns:xlink="http://www.w3.org/1999/xlink" width="512" height="512" x="0" y="0" viewBox="0 0 512 512" style="enable-background:new 0 0 512 512" xml:space="preserve" class=""><g><path d="m341.495 341.492 48.581-73.615-48.581-12.517c-6.364-19.092-17.185-37.126-32.459-52.4-15.063-15.063-32.882-26.095-52.4-32.459l-.637.637-59.188-2.334-26.307 1.697c-19.517 6.364-37.337 17.396-52.4 32.459l-78.646 78.646c-52.612 52.612-52.612 138.12 0 190.732 54.097 54.097 139.593 51.34 190.932 0l78.646-78.446c15.276-15.276 26.096-33.307 32.459-52.4zM177.354 419.3c-23.761 23.761-61.734 23.125-84.859 0-23.336-23.336-23.336-61.523 0-84.859l78.009-77.809 42.642 42.217L256 340.854 177.354 419.3z" style="" fill="#555555" data-original="#4a696f" class="" opacity="1"></path><path d="m309.037 393.891-78.646 78.446c-51.34 51.34-136.835 54.097-190.932 0L92.495 419.3c23.125 23.125 61.098 23.761 84.859 0L256 340.855l-42.853-42.006 95.89-95.89c15.274 15.274 26.095 33.307 32.459 52.4l48.581 12.517-48.581 73.615c-6.364 19.094-17.184 37.125-32.459 52.4z" style="" fill="#2c2c2c" data-original="#384949" class="" opacity="1"></path><path d="m415.11 436.321-21.215-21.215c-5.863-5.863-5.863-15.352 0-21.215 5.863-5.862 15.352-5.863 21.215 0l21.215 21.215c5.863 5.863 5.863 15.352 0 21.215-5.864 5.863-15.352 5.863-21.215 0z" style="" fill="#d2c5c2" data-original="#d2c5c2" class=""></path><path d="M96.89 118.101 75.674 96.886c-5.863-5.863-5.863-15.352 0-21.214s15.352-5.863 21.214 0l21.214 21.214c5.863 5.863 5.863 15.352 0 21.214s-15.35 5.863-21.212.001z" style="" fill="#dfd7d5" data-original="#dfd7d5"></path><path d="M444.363 306.464c2.144-8.008 10.369-12.752 18.376-10.608l28.984 7.769c8.008 2.103 12.731 10.369 10.608 18.376-2.144 8.008-10.369 12.752-18.376 10.608l-28.984-7.769c-7.955-2.129-12.754-10.321-10.608-18.376z" style="" fill="#d2c5c2" data-original="#d2c5c2" class=""></path><path d="M9.669 189.99c2.144-8.008 10.369-12.752 18.376-10.608l28.984 7.77c7.977 2.092 12.741 10.359 10.608 18.376-2.144 8.008-10.369 12.752-18.376 10.608l-28.984-7.77c-7.955-2.129-12.755-10.321-10.608-18.376z" style="" fill="#dfd7d5" data-original="#dfd7d5"></path><path d="m303.629 491.719-7.77-28.984c-2.144-8.008 2.6-16.232 10.608-18.376s16.222 2.569 18.376 10.608l7.769 28.984c2.144 8.008-2.6 16.232-10.608 18.376-8.053 2.146-16.246-2.653-18.375-10.608z" style="" fill="#d2c5c2" data-original="#d2c5c2" class=""></path><path d="m187.155 57.026-7.77-28.984c-2.144-8.008 2.6-16.232 10.608-18.376 8.008-2.123 16.242 2.569 18.376 10.608l7.77 28.984c2.144 8.008-2.6 16.232-10.608 18.376-8.054 2.144-16.246-2.655-18.376-10.608z" style="" fill="#dfd7d5" data-original="#dfd7d5"></path><path d="M472.54 39.655c-52.612-52.612-138.108-52.825-190.932 0l-78.646 78.446c-15.274 15.274-26.094 33.306-32.459 52.4a135.954 135.954 0 0 0 .001 86.132c6.364 19.092 17.184 37.127 32.458 52.401 14.851 14.851 32.671 25.881 52.401 32.458l.636-.636c23.337-23.337 23.336-61.523 0-84.859s-23.336-61.523 0-84.859l78.646-78.446c11.457-11.457 26.307-17.396 42.431-17.396.423-.423 4.029-.212 4.879.212 11.456-.001 26.517 6.151 37.549 17.184 23.336 23.336 23.337 61.522 0 84.859l-78.008 77.808a135.957 135.957 0 0 1 0 86.133c19.304-6.576 37.55-17.608 52.4-32.459l78.646-78.446c52.612-52.613 52.61-138.32-.002-190.932z" style="" fill="#fcca19" data-original="#ffd400" class="" opacity="1"></path><path d="m256 340.854-.636.636c-19.729-6.576-37.551-17.607-52.401-32.458L256 255.995c23.336 23.337 23.337 61.523 0 84.859zM472.54 230.588l-78.646 78.446c-14.85 14.851-33.095 25.883-52.4 32.459a135.957 135.957 0 0 0 0-86.133l78.008-77.808c23.337-23.337 23.336-61.523 0-84.859l53.037-53.037c52.613 52.611 52.615 138.318.001 190.932z" style="" fill="#ff9f00" data-original="#ff9f00" class=""></path></g></svg>